# xmcd
#
# Track frame offsets:
#	150
#	14642
#	29865
#	47155
#	61968
#	83775
#	104965
#	123356
#	139311
#	159626
#	171969
#	186729
#	201790
#
# Disc length: 2759 seconds
#
# Revision: 0
# Processed by: cddbd v1.5.1PL2 Copyright (c) Steve Scherf et al.
# Submitted via: EasyCDDAExtractor 4.6.9.1
#
DISCID=cd0ac50d
DTITLE=Carlene Carter - Little Acts Of Treason
DYEAR=1999
DGENRE=Country
TTITLE0=Hurricane
TTITLE1=Love Like This
TTITLE2=Little Acts Of Treason
TTITLE3=He Will Be Mine
TTITLE4=Come Here You
TTITLE5=Change
TTITLE6=The Lucky Ones
TTITLE7=All Night Long
TTITLE8=You'll Be The One
TTITLE9=Loose Talk (Duet With Carl Smith) (Album Version)
TTITLE10=Go Wild
TTITLE11=The Winding Stream
TTITLE12=Come Here You (Reprise)
EXTD=
EXTT0=
EXTT1=
EXTT2=
EXTT3=
EXTT4=
EXTT5=
EXTT6=
EXTT7=
EXTT8=
EXTT9=
EXTT10=
EXTT11=
EXTT12=
PLAYORDER=
